#N canvas 1117 436 450 644 10;
#X obj 160 471 print;
#X msg 111 409 devices;
#X msg 173 409 open 32;
#X floatatom 64 258 5 0 0 0 - - -, f 5;
#X msg 64 275 sendtyped /led i \$1;
#X obj 33 521 print message;
#X msg 220 276 /led 1;
#X obj 73 442 comport/comport 32 115200;
#X obj 54 315 t b a b;
#X msg 54 336 ];
#X msg 93 336 [;
#X obj 73 382 mrpeach/packOSCstream;
#X obj 33 495 mrpeach/unpackOSCstream;
#X floatatom 54 207 5 0 255 0 - - -, f 5;
#X obj 298 455 list prepend;
#X obj 298 477 list;
#X obj 277 531 list;
#X obj 298 499 list tosymbol;
#X obj 277 431 t b b;
#X obj 277 552 print;
#X obj 277 409 sel 13 10;
#X msg 54 225 sendtyped /led b \$1 0 0 0 0 0 0;
#X obj 57 127 pack 0 0 0 0 0 0;
#X obj 80 50 t b a;
#X obj 120 50 t b a;
#X obj 160 50 t b a;
#X obj 200 50 t b a;
#X obj 240 50 t b a;
#X floatatom 40 20 5 0 255 0 - - -, f 5;
#X floatatom 80 20 5 0 255 0 - - -, f 5;
#X floatatom 120 20 5 0 255 0 - - -, f 5;
#X floatatom 160 20 5 0 255 0 - - -, f 5;
#X floatatom 200 20 5 0 255 0 - - -, f 5;
#X floatatom 240 20 5 0 255 0 - - -, f 5;
#X msg 57 152 sendtyped /led b \$1 \$2 \$3 \$4 \$5 \$6;
#X connect 1 0 7 0;
#X connect 2 0 7 0;
#X connect 3 0 4 0;
#X connect 4 0 8 0;
#X connect 6 0 8 0;
#X connect 7 0 20 0;
#X connect 7 1 0 0;
#X connect 8 0 9 0;
#X connect 8 1 11 0;
#X connect 8 2 10 0;
#X connect 9 0 11 0;
#X connect 10 0 11 0;
#X connect 11 0 7 0;
#X connect 11 0 12 0;
#X connect 12 0 5 0;
#X connect 13 0 21 0;
#X connect 14 0 15 0;
#X connect 15 0 14 1;
#X connect 15 0 17 0;
#X connect 16 0 19 0;
#X connect 17 0 16 1;
#X connect 18 0 16 0;
#X connect 18 1 14 1;
#X connect 20 0 18 0;
#X connect 20 2 14 0;
#X connect 21 0 8 0;
#X connect 22 0 34 0;
#X connect 23 0 22 0;
#X connect 23 1 22 1;
#X connect 24 0 22 0;
#X connect 24 1 22 2;
#X connect 25 0 22 0;
#X connect 25 1 22 3;
#X connect 26 0 22 0;
#X connect 26 1 22 4;
#X connect 27 0 22 0;
#X connect 27 1 22 5;
#X connect 28 0 22 0;
#X connect 29 0 23 0;
#X connect 30 0 24 0;
#X connect 31 0 25 0;
#X connect 32 0 26 0;
#X connect 33 0 27 0;
#X connect 34 0 8 0;
