#N canvas 652 424 717 736 10;
#X floatatom 74 258 5 0 31 0 - - -, f 5;
#X msg 74 275 sendtyped /led i \$1;
#X obj 54 315 t b a b;
#X msg 54 336 ];
#X msg 93 336 [;
#X floatatom 64 207 5 0 255 0 - - -, f 5;
#X msg 64 225 sendtyped /led b \$1 0 0 0 0 0 0;
#X obj 57 127 pack 0 0 0 0 0 0;
#X obj 80 50 t b a;
#X obj 120 50 t b a;
#X obj 160 50 t b a;
#X obj 200 50 t b a;
#X obj 240 50 t b a;
#X floatatom 40 20 5 0 255 0 - - -, f 5;
#X floatatom 80 20 5 0 255 0 - - -, f 5;
#X floatatom 120 20 5 0 255 0 - - -, f 5;
#X floatatom 160 20 5 0 255 0 - - -, f 5;
#X floatatom 200 20 5 0 255 0 - - -, f 5;
#X floatatom 240 20 5 0 255 0 - - -, f 5;
#X obj 23 568 list prepend set;
#X obj 23 590 list trim;
#X msg 23 617 192 35 98 117 110 100 108 101 0 0 0 0 0 0 0 0 1 0 0 2
48 47 108 101 100 0 0 0 0 44 98 0 0 0 0 2 32 101 238 60 218 45 163
233 233 180 32 123 54 248 42 139 250 41 126 254 164 36 143 8 25 239
62 34 232 56 155 10 142 203 158 190 174 21 227 117 76 155 103 161 13
118 67 230 109 212 104 22 3 110 95 49 181 8 252 93 248 233 37 229 15
94 134 50 63 45 78 201 17 24 240 72 143 86 218 94 123 16 49 204 141
221 145 93 178 59 197 228 69 17 134 56 73 37 51 48 170 156 147 156
120 115 140 70 29 255 223 235 161 101 231 55 227 23 85 196 209 81 231
15 172 150 43 124 60 41 54 79 17 138 98 164 191 245 9 115 21 218 65
131 97 89 155 112 163 195 218 156 209 17 178 52 14 96 134 40 231 112
30 38 147 31 105 154 38 228 54 166 216 76 240 31 56 117 91 140 109
138 79 29 112 65 118 171 73 85 5 178 75 2 123 78 78 130 89 53 238 137
228 183 197 191 219 221 182 168 64 55 165 225 19 229 128 112 171 130
204 63 95 24 147 102 231 219 221 93 99 219 221 225 44 85 41 226 126
59 153 243 64 46 65 64 209 159 5 203 250 142 21 38 239 205 99 47 67
56 38 207 235 240 80 176 56 155 14 255 210 154 66 37 179 76 0 131 39
69 8 47 197 139 70 176 106 212 75 185 56 193 199 230 144 23 10 118
15 255 126 11 138 65 34 98 8 128 4 17 219 220 115 196 67 22 38 7 114
149 52 252 38 234 0 209 175 227 245 49 227 105 193 194 214 126 144
159 154 53 73 213 250 179 201 223 52 39 31 31 185 200 202 95 228 209
244 75 187 123 170 234 165 254 33 32 46 134 231 34 187 51 40 251 76
23 230 1 51 46 53 85 214 90 120 92 100 100 157 62 151 241 87 95 109
133 93 223 228 120 164 18 182 249 155 252 23 4 106 210 112 98 40 112
24 163 29 217 22 26 251 176 213 219 221 26 183 234 181 182 73 198 45
39 214 121 126 35 97 107 146 244 250 25 252 183 57 207 250 151 190
103 108 13 169 4 210 19 24 203 70 106 163 165 125 209 214 245 187 63
177 88 215 36 31 94 51 161 119 74 183 200 243 201 209 210 49 178 108
97 171 219 220 240 187 54 80 61 0 122 25 165 110 115 236 236 153 234
111 62 167 241 216 49 141 95 170 191 74 79 112 65 37 152 121 106 230
73 150 71 19 41 212 54 47 47 55 231 242 1 123 84 135 110 202 219 220
199 234 123 176 117 192;
#X msg 134 579 192 35 98 117 110 100 108 101 0 0 0 0 0 0 0 0 1 0 0
0 24 47 108 101 100 0 0 0 0 44 98 0 0 0 0 0 6 0 0 0 0 0 0 0 0 192;
#X msg 57 152 sendtyped /led b \$1 \$2 \$3 \$4 \$5 \$6 0 0 0 0 0 0
;
#X obj 505 190 list prepend;
#X obj 505 212 list;
#X obj 484 235 list;
#X obj 505 136 until;
#X obj 505 158 random 256;
#X floatatom 484 74 5 1 65536 0 - - -, f 5;
#X obj 484 93 t b f b;
#X obj 484 259 list prepend sendtyped /led b;
#X obj 484 281 list trim;
#X obj 483 325 div 4;
#X obj 484 303 list length;
#X obj 484 348 * 4;
#X floatatom 483 398 5 0 0 0 - - -, f 5;
#X obj 484 370 + 16;
#X text 518 73 send random values;
#N canvas 0 50 450 300 return 0;
#X obj 174 123 list prepend;
#X obj 174 145 list;
#X obj 153 199 list;
#X obj 174 167 list tosymbol;
#X obj 153 99 t b b;
#X obj 153 220 print;
#X obj 153 77 sel 13 10;
#X obj 153 49 inlet;
#X connect 0 0 1 0;
#X connect 1 0 0 1;
#X connect 1 0 3 0;
#X connect 2 0 5 0;
#X connect 3 0 2 1;
#X connect 4 0 2 0;
#X connect 4 1 0 1;
#X connect 6 0 4 0;
#X connect 6 2 0 0;
#X connect 7 0 6 0;
#X restore 490 519 pd return;
#X text 113 257 global brightness control;
#X obj 484 54 bng 15 250 50 0 empty empty empty 17 7 0 10 -262144 -1
-1;
#X obj 483 10 key;
#X obj 483 32 sel 32;
#X obj 564 38 metro 30;
#X obj 565 15 tgl 15 0 empty empty empty 17 7 0 10 -262144 -1 -1 0
1;
#X obj 23 547 spigot;
#X obj 56 526 tgl 15 0 empty empty empty 17 7 0 10 -262144 -1 -1 0
1;
#X floatatom 607 16 5 0 255 0 - - -, f 5;
#X obj 84 512 list length;
#X floatatom 84 532 5 0 255 0 - - -, f 5;
#X obj 431 186 bng 15 250 50 0 empty empty empty 17 7 0 10 -262144
-1 -1;
#X obj 74 361 mrpeach/packOSC;
#X msg 68 425 disconnect;
#X obj 75 473 tgl 15 0 empty empty 1=connected 20 8 0 8 -4034 -1 -1
1 1;
#X floatatom 377 376 5 0 0 0 - - -, f 5;
#X msg 47 399 connect 127.0.0.1 10000;
#X obj 490 498 mrpeach/udpreceive 11000;
#X obj 75 452 mrpeach/udpsend;
#X floatatom 418 280 5 0 0 0 - - -, f 5;
#X obj 418 236 t b b;
#X obj 418 258 realtime;
#X obj 381 109 metro 30;
#X obj 382 86 tgl 15 0 empty empty empty 17 7 0 10 -262144 -1 -1 0
1;
#X floatatom 424 87 5 0 255 0 - - -, f 5;
#X obj 381 131 t b b;
#X floatatom 342 264 5 0 0 0 - - -, f 5;
#X obj 342 220 t b b;
#X obj 342 242 realtime;
#X connect 0 0 1 0;
#X connect 1 0 2 0;
#X connect 2 0 3 0;
#X connect 2 1 52 0;
#X connect 2 2 4 0;
#X connect 3 0 52 0;
#X connect 4 0 52 0;
#X connect 5 0 6 0;
#X connect 6 0 2 0;
#X connect 7 0 23 0;
#X connect 8 0 7 0;
#X connect 8 1 7 1;
#X connect 9 0 7 0;
#X connect 9 1 7 2;
#X connect 10 0 7 0;
#X connect 10 1 7 3;
#X connect 11 0 7 0;
#X connect 11 1 7 4;
#X connect 12 0 7 0;
#X connect 12 1 7 5;
#X connect 13 0 7 0;
#X connect 14 0 8 0;
#X connect 15 0 9 0;
#X connect 16 0 10 0;
#X connect 17 0 11 0;
#X connect 18 0 12 0;
#X connect 19 0 20 0;
#X connect 20 0 21 0;
#X connect 23 0 2 0;
#X connect 24 0 25 0;
#X connect 25 0 24 1;
#X connect 25 0 26 1;
#X connect 26 0 31 0;
#X connect 27 0 28 0;
#X connect 28 0 24 0;
#X connect 29 0 30 0;
#X connect 30 0 26 0;
#X connect 30 0 60 0;
#X connect 30 1 27 0;
#X connect 30 2 24 1;
#X connect 30 2 26 1;
#X connect 31 0 32 0;
#X connect 32 0 2 0;
#X connect 32 0 34 0;
#X connect 33 0 35 0;
#X connect 34 0 33 0;
#X connect 35 0 37 0;
#X connect 37 0 36 0;
#X connect 41 0 29 0;
#X connect 42 0 43 0;
#X connect 43 0 41 0;
#X connect 44 0 41 0;
#X connect 45 0 44 0;
#X connect 46 0 19 0;
#X connect 47 0 46 1;
#X connect 48 0 44 1;
#X connect 49 0 50 0;
#X connect 51 0 26 0;
#X connect 52 0 46 0;
#X connect 52 0 49 0;
#X connect 52 0 58 0;
#X connect 53 0 58 0;
#X connect 56 0 58 0;
#X connect 57 0 39 0;
#X connect 58 0 54 0;
#X connect 60 0 61 0;
#X connect 60 1 61 1;
#X connect 61 0 59 0;
#X connect 62 0 65 0;
#X connect 63 0 62 0;
#X connect 64 0 62 1;
#X connect 65 0 67 0;
#X connect 65 1 26 0;
#X connect 67 0 68 0;
#X connect 67 1 68 1;
#X connect 68 0 66 0;
