#N canvas 301 177 717 736 10;
#X floatatom 74 258 5 0 31 0 - - -, f 5;
#X msg 74 275 sendtyped /led i \$1;
#X floatatom 64 207 5 0 255 0 - - -, f 5;
#X msg 64 225 sendtyped /led b \$1 0 0 0 0 0 0;
#X obj 57 127 pack 0 0 0 0 0 0;
#X obj 80 50 t b a;
#X obj 120 50 t b a;
#X obj 160 50 t b a;
#X obj 200 50 t b a;
#X obj 240 50 t b a;
#X floatatom 40 20 5 0 255 0 - - -, f 5;
#X floatatom 80 20 5 0 255 0 - - -, f 5;
#X floatatom 120 20 5 0 255 0 - - -, f 5;
#X floatatom 160 20 5 0 255 0 - - -, f 5;
#X floatatom 200 20 5 0 255 0 - - -, f 5;
#X floatatom 240 20 5 0 255 0 - - -, f 5;
#X obj 24 568 list prepend set;
#X obj 24 590 list trim;
#X msg 24 617 35 98 117 110 100 108 101 0 0 0 0 0 0 0 0 1 0 0 0 28
47 108 101 100 0 0 0 0 44 98 0 0 0 0 0 12 0 0 0 0 195 0 0 0 0 0 0 0
;
#X msg 57 152 sendtyped /led b \$1 \$2 \$3 \$4 \$5 \$6 0 0 0 0 0 0
;
#X obj 505 190 list prepend;
#X obj 505 212 list;
#X obj 484 235 list;
#X obj 505 136 until;
#X obj 505 158 random 256;
#X floatatom 484 74 5 1 65536 0 - - -, f 5;
#X obj 484 93 t b f b;
#X obj 484 259 list prepend sendtyped /led b;
#X obj 484 281 list trim;
#X obj 483 325 div 4;
#X obj 484 303 list length;
#X obj 484 348 * 4;
#X floatatom 483 398 5 0 0 0 - - -, f 5;
#X obj 484 370 + 16;
#X text 518 73 send random values;
#N canvas 0 50 450 300 return 0;
#X obj 174 123 list prepend;
#X obj 174 145 list;
#X obj 153 199 list;
#X obj 174 167 list tosymbol;
#X obj 153 99 t b b;
#X obj 153 220 print;
#X obj 153 77 sel 13 10;
#X obj 153 49 inlet;
#X connect 0 0 1 0;
#X connect 1 0 0 1;
#X connect 1 0 3 0;
#X connect 2 0 5 0;
#X connect 3 0 2 1;
#X connect 4 0 2 0;
#X connect 4 1 0 1;
#X connect 6 0 4 0;
#X connect 6 2 0 0;
#X connect 7 0 6 0;
#X restore 492 486 pd return;
#X text 113 257 global brightness control;
#X obj 484 54 bng 15 250 50 0 empty empty empty 17 7 0 10 -262144 -1
-1;
#X obj 483 10 key;
#X obj 483 32 sel 32;
#X obj 564 38 metro 30;
#X obj 565 15 tgl 15 0 empty empty empty 17 7 0 10 -262144 -1 -1 0
1;
#X obj 24 547 spigot;
#X obj 56 526 tgl 15 0 empty empty empty 17 7 0 10 -262144 -1 -1 1
1;
#X floatatom 607 16 5 0 255 0 - - -, f 5;
#X obj 84 512 list length;
#X floatatom 84 532 5 0 255 0 - - -, f 5;
#X obj 431 186 bng 15 250 50 0 empty empty empty 17 7 0 10 -262144
-1 -1;
#X obj 74 361 mrpeach/packOSC;
#X msg 68 425 disconnect;
#X obj 75 473 tgl 15 0 empty empty 1=connected 20 8 0 8 -4034 -1 -1
1 1;
#X msg 47 399 connect 127.0.0.1 10000;
#X obj 492 465 mrpeach/udpreceive 11000;
#X obj 75 452 mrpeach/udpsend;
#X floatatom 418 280 5 0 0 0 - - -, f 5;
#X obj 418 236 t b b;
#X obj 418 258 realtime;
#X obj 381 109 metro 30;
#X obj 382 86 tgl 15 0 empty empty empty 17 7 0 10 -262144 -1 -1 0
1;
#X floatatom 424 87 5 0 255 0 - - -, f 5;
#X obj 381 131 t b b;
#X floatatom 342 264 5 0 0 0 - - -, f 5;
#X obj 342 220 t b b;
#X obj 342 242 realtime;
#X obj 47 379 loadbang;
#X obj 57 302 t b a b;
#X msg 97 327 [;
#X msg 50 326 ];
#X connect 0 0 1 0;
#X connect 1 0 65 0;
#X connect 2 0 3 0;
#X connect 3 0 65 0;
#X connect 4 0 19 0;
#X connect 5 0 4 0;
#X connect 5 1 4 1;
#X connect 6 0 4 0;
#X connect 6 1 4 2;
#X connect 7 0 4 0;
#X connect 7 1 4 3;
#X connect 8 0 4 0;
#X connect 8 1 4 4;
#X connect 9 0 4 0;
#X connect 9 1 4 5;
#X connect 10 0 4 0;
#X connect 11 0 5 0;
#X connect 12 0 6 0;
#X connect 13 0 7 0;
#X connect 14 0 8 0;
#X connect 15 0 9 0;
#X connect 16 0 17 0;
#X connect 17 0 18 0;
#X connect 19 0 65 0;
#X connect 20 0 21 0;
#X connect 21 0 20 1;
#X connect 21 0 22 1;
#X connect 22 0 27 0;
#X connect 23 0 24 0;
#X connect 24 0 20 0;
#X connect 25 0 26 0;
#X connect 26 0 22 0;
#X connect 26 0 55 0;
#X connect 26 1 23 0;
#X connect 26 2 20 1;
#X connect 26 2 22 1;
#X connect 27 0 28 0;
#X connect 28 0 30 0;
#X connect 28 0 65 0;
#X connect 29 0 31 0;
#X connect 30 0 29 0;
#X connect 31 0 33 0;
#X connect 33 0 32 0;
#X connect 37 0 25 0;
#X connect 38 0 39 0;
#X connect 39 0 37 0;
#X connect 40 0 37 0;
#X connect 41 0 40 0;
#X connect 42 0 16 0;
#X connect 43 0 42 1;
#X connect 44 0 40 1;
#X connect 45 0 46 0;
#X connect 47 0 22 0;
#X connect 48 0 42 0;
#X connect 48 0 45 0;
#X connect 48 0 53 0;
#X connect 49 0 53 0;
#X connect 51 0 53 0;
#X connect 52 0 35 0;
#X connect 53 0 50 0;
#X connect 55 0 56 0;
#X connect 55 1 56 1;
#X connect 56 0 54 0;
#X connect 57 0 60 0;
#X connect 58 0 57 0;
#X connect 59 0 57 1;
#X connect 60 0 62 0;
#X connect 60 1 22 0;
#X connect 62 0 63 0;
#X connect 62 1 63 1;
#X connect 63 0 61 0;
#X connect 64 0 51 0;
#X connect 65 0 67 0;
#X connect 65 1 48 0;
#X connect 65 2 66 0;
#X connect 66 0 48 0;
#X connect 67 0 48 0;
