#N canvas 588 142 717 736 10;
#X obj 220 464 print;
#X msg 111 409 devices;
#X floatatom 74 258 5 0 0 0 - - -, f 5;
#X msg 74 275 sendtyped /led i \$1;
#X obj 54 315 t b a b;
#X msg 54 336 ];
#X msg 93 336 [;
#X obj 73 382 mrpeach/packOSCstream;
#X floatatom 64 207 5 0 255 0 - - -, f 5;
#X msg 64 225 sendtyped /led b \$1 0 0 0 0 0 0;
#X obj 57 127 pack 0 0 0 0 0 0;
#X obj 80 50 t b a;
#X obj 120 50 t b a;
#X obj 160 50 t b a;
#X obj 200 50 t b a;
#X obj 240 50 t b a;
#X floatatom 40 20 5 0 255 0 - - -, f 5;
#X floatatom 80 20 5 0 255 0 - - -, f 5;
#X floatatom 120 20 5 0 255 0 - - -, f 5;
#X floatatom 160 20 5 0 255 0 - - -, f 5;
#X floatatom 200 20 5 0 255 0 - - -, f 5;
#X floatatom 240 20 5 0 255 0 - - -, f 5;
#X msg 173 410 open 2;
#X obj 23 568 list prepend set;
#X obj 23 590 list trim;
#X msg 23 618 192 35 98 117 110 100 108 101 0 0 0 0 0 0 0 0 1 0 0 0
28 47 108 101 100 0 0 0 0 44 98 0 0 0 0 0 12 206 130 90 152 219 221
255 0 0 0 0 0 0 192;
#X msg 134 579 192 35 98 117 110 100 108 101 0 0 0 0 0 0 0 0 1 0 0
0 24 47 108 101 100 0 0 0 0 44 98 0 0 0 0 0 6 0 0 0 0 0 0 0 0 192;
#X msg 57 152 sendtyped /led b \$1 \$2 \$3 \$4 \$5 \$6 0 0 0 0 0 0
;
#X msg 227 412 close;
#X obj 505 190 list prepend;
#X obj 505 212 list;
#X obj 484 235 list;
#X obj 505 136 until;
#X obj 505 158 random 256;
#X floatatom 484 74 5 1 65536 0 - - -, f 5;
#X obj 484 93 t b f b;
#X obj 484 259 list prepend sendtyped /led b;
#X obj 484 281 list trim;
#X obj 483 325 div 4;
#X obj 484 303 list length;
#X obj 484 348 * 4;
#X floatatom 483 398 5 0 0 0 - - -, f 5;
#X obj 484 370 + 16;
#X text 518 73 send random values;
#N canvas 0 22 450 300 return 0;
#X obj 174 123 list prepend;
#X obj 174 145 list;
#X obj 153 199 list;
#X obj 174 167 list tosymbol;
#X obj 153 99 t b b;
#X obj 153 220 print;
#X obj 153 77 sel 13 10;
#X obj 153 49 inlet;
#X connect 0 0 1 0;
#X connect 1 0 0 1;
#X connect 1 0 3 0;
#X connect 2 0 5 0;
#X connect 3 0 2 1;
#X connect 4 0 2 0;
#X connect 4 1 0 1;
#X connect 6 0 4 0;
#X connect 6 2 0 0;
#X connect 7 0 6 0;
#X restore 73 464 pd return;
#X text 113 257 global brightness control;
#X obj 484 54 bng 15 250 50 0 empty empty empty 17 7 0 10 -262144 -1
-1;
#X obj 483 10 key;
#X obj 483 32 sel 32;
#X obj 74 442 comport/comport 2 115200;
#X connect 1 0 49 0;
#X connect 2 0 3 0;
#X connect 3 0 4 0;
#X connect 4 0 5 0;
#X connect 4 1 7 0;
#X connect 4 2 6 0;
#X connect 5 0 7 0;
#X connect 6 0 7 0;
#X connect 7 0 23 0;
#X connect 7 0 49 0;
#X connect 8 0 9 0;
#X connect 9 0 4 0;
#X connect 10 0 27 0;
#X connect 11 0 10 0;
#X connect 11 1 10 1;
#X connect 12 0 10 0;
#X connect 12 1 10 2;
#X connect 13 0 10 0;
#X connect 13 1 10 3;
#X connect 14 0 10 0;
#X connect 14 1 10 4;
#X connect 15 0 10 0;
#X connect 15 1 10 5;
#X connect 16 0 10 0;
#X connect 17 0 11 0;
#X connect 18 0 12 0;
#X connect 19 0 13 0;
#X connect 20 0 14 0;
#X connect 21 0 15 0;
#X connect 22 0 49 0;
#X connect 23 0 24 0;
#X connect 24 0 25 0;
#X connect 27 0 4 0;
#X connect 28 0 49 0;
#X connect 29 0 30 0;
#X connect 30 0 29 1;
#X connect 30 0 31 1;
#X connect 31 0 36 0;
#X connect 32 0 33 0;
#X connect 33 0 29 0;
#X connect 34 0 35 0;
#X connect 35 0 31 0;
#X connect 35 1 32 0;
#X connect 35 2 29 1;
#X connect 35 2 31 1;
#X connect 36 0 37 0;
#X connect 37 0 4 0;
#X connect 37 0 39 0;
#X connect 38 0 40 0;
#X connect 39 0 38 0;
#X connect 40 0 42 0;
#X connect 42 0 41 0;
#X connect 46 0 34 0;
#X connect 47 0 48 0;
#X connect 48 0 46 0;
#X connect 49 0 44 0;
#X connect 49 1 0 0;
