#N canvas 651 23 941 488 10;
#X obj 222 438 print;
#X msg 71 364 devices;
#X floatatom 312 46 5 0 31 0 - - -, f 5;
#X obj 28 279 t b a b, f 9;
#X msg 28 300 ];
#X msg 69 301 [;
#X obj 59 338 mrpeach/packOSCstream;
#X obj 29 120 pack 0 0 0 0 0 0, f 25;
#X obj 70 86 t b a;
#X obj 110 86 t b a;
#X obj 150 86 t b a;
#X obj 190 86 t b a;
#X obj 230 86 t b a;
#X floatatom 29 63 5 0 255 0 - - -, f 5;
#X floatatom 70 63 5 0 255 0 - - -, f 5;
#X floatatom 110 63 5 0 255 0 - - -, f 5;
#X floatatom 150 63 5 0 255 0 - - -, f 5;
#X floatatom 190 63 5 0 255 0 - - -, f 5;
#X floatatom 230 65 5 0 255 0 - - -, f 5;
#X msg 202 387 close;
#N canvas 0 50 450 300 return 0;
#X obj 174 123 list prepend;
#X obj 174 145 list;
#X obj 153 199 list;
#X obj 174 167 list tosymbol;
#X obj 153 99 t b b;
#X obj 153 220 print;
#X obj 153 77 sel 13 10;
#X obj 153 49 inlet;
#X connect 0 0 1 0;
#X connect 1 0 0 1;
#X connect 1 0 3 0;
#X connect 2 0 5 0;
#X connect 3 0 2 1;
#X connect 4 0 2 0;
#X connect 4 1 0 1;
#X connect 6 0 4 0;
#X connect 6 2 0 0;
#X connect 7 0 6 0;
#X restore 59 439 pd return;
#X msg 152 363 open 0;
#X obj 58 417 comport/comport 1 115200;
#X msg 148 385 open 1;
#X msg 28 151 sendtyped /1 b \$1 \$2 \$3 \$4 \$5 \$6, f 18;
#X msg 313 66 sendtyped /1 i \$1;
#X floatatom 275 207 5 0 255 0 - - -, f 5;
#X text 354 33 per-strip brightness control (32 steps), f 30;
#X obj 649 211 pack 0 0 0 0 0 0, f 34;
#X obj 690 175 t b a;
#X obj 730 175 t b a;
#X obj 770 175 t b a;
#X obj 810 175 t b a;
#X obj 850 175 t b a;
#X floatatom 649 152 5 0 255 0 - - -, f 5;
#X floatatom 690 152 5 0 255 0 - - -, f 5;
#X floatatom 730 152 5 0 255 0 - - -, f 5;
#X floatatom 770 152 5 0 255 0 - - -, f 5;
#X floatatom 810 152 5 0 255 0 - - -, f 5;
#X floatatom 850 154 5 0 255 0 - - -, f 5;
#X text 646 131 DMX values, f 30;
#X msg 649 236 sendtyped /DMX b \$1 \$2 \$3 \$4 \$5 \$6, f 35;
#X msg 275 224 sendtyped /b i \$1;
#X text 314 193 global brightness control for all strips (software
dithering: 256 steps), f 40;
#X msg 306 155 sendtyped /2 i \$1;
#X msg 306 121 sendtyped /2 b \$1 \$2 \$3 \$4 \$5 \$6, f 18;
#X text 27 27 RGB values (for 2 LEDs on 1st LED strip):;
#X text 352 98 same for strip 2:, f 20;
#X text 454 125 RGB values;
#X text 439 156 brightness control;
#X connect 1 0 22 0;
#X connect 2 0 25 0;
#X connect 3 0 4 0;
#X connect 3 1 6 0;
#X connect 3 2 5 0;
#X connect 4 0 6 0;
#X connect 5 0 6 0;
#X connect 6 0 22 0;
#X connect 7 0 24 0;
#X connect 8 0 7 0;
#X connect 8 1 7 1;
#X connect 9 0 7 0;
#X connect 9 1 7 2;
#X connect 10 0 7 0;
#X connect 10 1 7 3;
#X connect 11 0 7 0;
#X connect 11 1 7 4;
#X connect 12 0 7 0;
#X connect 12 1 7 5;
#X connect 13 0 7 0;
#X connect 14 0 8 0;
#X connect 15 0 9 0;
#X connect 16 0 10 0;
#X connect 17 0 11 0;
#X connect 18 0 12 0;
#X connect 19 0 22 0;
#X connect 21 0 22 0;
#X connect 22 0 20 0;
#X connect 22 1 0 0;
#X connect 23 0 22 0;
#X connect 24 0 3 0;
#X connect 25 0 3 0;
#X connect 26 0 42 0;
#X connect 28 0 41 0;
#X connect 29 0 28 0;
#X connect 29 1 28 1;
#X connect 30 0 28 0;
#X connect 30 1 28 2;
#X connect 31 0 28 0;
#X connect 31 1 28 3;
#X connect 32 0 28 0;
#X connect 32 1 28 4;
#X connect 33 0 28 0;
#X connect 33 1 28 5;
#X connect 34 0 28 0;
#X connect 35 0 29 0;
#X connect 36 0 30 0;
#X connect 37 0 31 0;
#X connect 38 0 32 0;
#X connect 39 0 33 0;
#X connect 41 0 3 0;
#X connect 42 0 3 0;
#X connect 44 0 3 0;
#X connect 45 0 3 0;
